PathFileType	4	(X/Y/Z)	c:/Users/goper/Files/vsCode/490R/osim_files/C15/C15_SSWS_02.trc
DataRate	CameraRate	NumFrames	NumMarkers	Units                	OrigDataRate	OrigDataStartFrame	OrigNumFrames
250.00	250.00	4	36	mm	250.0	893	2379
                Frame#	Time	LPSIS			LASIS			LTH1			LTH2			LTH3			LTH4			LLFE			LMFE			LSH1			LSH2			LSH3			LSH4			LLMAL			LMMAL			LCAL			LMTP5			LTOE			LMTP1			RPSIS			RASIS			RTH1			RTH2			RTH3			RTH4			RLFE			RMFE			RSH1			RSH2			RSH3			RSH4			RLMAL			RMMAL			RCAL			RMTP1			RTOE			RMTP5		
		X1	Y1	Z1	X2	Y2	Z2	X3	Y3	Z3	X4	Y4	Z4	X5	Y5	Z5	X6	Y6	Z6	X7	Y7	Z7	X8	Y8	Z8	X9	Y9	Z9	X10	Y10	Z10	X11	Y11	Z11	X12	Y12	Z12	X13	Y13	Z13	X14	Y14	Z14	X15	Y15	Z15	X16	Y16	Z16	X17	Y17	Z17	X18	Y18	Z18	X19	Y19	Z19	X20	Y20	Z20	X21	Y21	Z21	X22	Y22	Z22	X23	Y23	Z23	X24	Y24	Z24	X25	Y25	Z25	X26	Y26	Z26	X27	Y27	Z27	X28	Y28	Z28	X29	Y29	Z29	X30	Y30	Z30	X31	Y31	Z31	X32	Y32	Z32	X33	Y33	Z33	X34	Y34	Z34	X35	Y35	Z35	X36	Y36	Z36

893	3.56800	1081.68726	1016.20490	299.18793	920.42767	993.17816	374.78287	1035.98279	608.07123	419.74051	1040.86523	562.55634	401.87677	985.12170	612.25372	414.09235	989.67133	567.28778	403.51303	1036.71924	482.98624	382.17072	1035.77161	473.93695	258.71704	1123.15100	389.10422	391.26053	1131.40930	344.32431	393.63882	0.00000	0.00000	0.00000	1080.08252	327.54459	392.76041	1171.24194	86.94239	320.96011	1149.82458	112.63737	231.75134	1236.58130	65.01685	276.86432	1056.60535	33.57076	343.44492	999.36737	52.88370	280.35507	0.00000	0.00000	0.00000	1071.74841	1013.42511	178.07397	909.94946	993.67102	126.86782	864.81842	635.37469	56.51512	849.74689	593.71796	62.05021	809.18622	654.18799	70.78162	798.16235	607.80524	73.30264	803.80994	511.37302	93.48011	808.43164	487.96942	209.78148	868.20264	393.92249	78.71083	859.18750	351.35651	73.49428	807.43427	401.63062	67.96562	807.09314	356.40762	66.67203	776.84955	92.96850	116.87614	735.57184	123.98970	197.47009	820.59314	57.92130	176.96506	614.71674	74.21662	175.30667	596.70428	99.91656	116.57822	660.35413	52.69217	67.29537
894	3.57200	1078.09619	1015.71021	298.70203	917.01727	992.73462	374.74838	1033.99512	608.16864	419.58002	1037.44702	561.52264	401.46475	982.63483	611.57520	414.07199	987.72034	567.07904	403.56601	1035.61084	483.34406	382.47089	1033.80579	473.73209	258.78976	1121.97644	389.31439	391.10339	1130.52942	344.61227	393.46286	0.00000	0.00000	0.00000	1079.32947	328.10733	392.55746	1171.35059	87.52971	320.79004	1149.51001	112.78844	231.60585	1236.44580	65.33807	276.77637	1056.61548	33.61916	343.39410	999.33942	52.95433	280.31564	0.00000	0.00000	0.00000	1067.56604	1012.67706	177.59933	905.70752	993.10260	127.02585	862.47772	634.56372	55.95925	847.21063	592.38898	61.59251	806.45905	652.75287	70.79799	795.71387	606.28412	73.01482	800.55823	510.06830	93.60220	805.65723	486.69794	209.82254	862.72668	391.78122	78.35822	853.01862	349.74158	73.14465	801.99786	400.69601	68.05402	800.96405	355.36176	66.61978	764.72662	92.76500	116.99013	724.92084	124.73460	197.82335	808.15295	56.61126	176.67320	602.53418	77.96375	176.71913	584.82892	103.99693	118.10001	646.81256	55.16429	68.42560
895	3.57600	1074.42737	1015.09021	298.19638	913.54358	992.37274	374.80249	1031.78979	608.20435	419.56174	1035.56140	561.49945	401.46439	981.77197	612.27753	414.50900	985.86658	566.94916	403.74536	1033.34924	482.61252	382.26810	1031.86023	473.60590	258.75079	1120.00293	389.16370	390.94180	1129.53882	344.96985	393.29425	0.00000	0.00000	0.00000	1078.62073	328.07114	392.65576	1169.81592	86.67400	320.23013	1149.23157	112.92624	231.51059	1236.46594	66.02025	276.56735	1056.61377	33.68188	343.37610	999.30090	52.98240	280.32663	0.00000	0.00000	0.00000	1063.56848	1011.99701	177.15916	901.44208	992.59619	126.93716	860.53387	633.90393	55.13386	844.71771	591.10754	61.04066	803.95013	651.51062	70.65242	793.04700	604.83838	72.66348	797.37701	508.91287	93.63128	802.75708	485.35550	209.91371	857.23999	389.70215	77.95067	846.41882	347.52444	72.90849	796.67859	399.91315	68.00426	794.95367	354.29330	66.49579	752.89136	92.67630	117.12485	714.53534	125.59444	198.18636	795.99689	55.41885	176.32013	591.03058	81.83957	178.32439	573.30103	108.07271	119.73287	633.61267	57.53630	69.69406
896	3.58000	1070.69519	1014.40967	297.73962	909.72601	991.85162	374.72556	1029.60229	608.19391	419.54630	1033.53882	561.42236	401.40836	978.81567	611.54657	414.43225	983.73315	566.62683	403.74561	1031.44885	482.40643	382.21564	1029.78479	473.40976	258.80600	1119.58105	389.74707	390.71765	1128.68237	345.43329	393.02356	0.00000	0.00000	0.00000	1077.79980	328.41052	392.70206	1170.90833	87.97757	321.09317	1148.91663	113.09579	231.41753	1236.28809	66.36127	276.46289	1056.61938	33.69903	343.35263	999.24164	53.01348	280.37344	0.00000	0.00000	0.00000	1059.42432	1011.20361	176.66766	897.06836	992.18848	126.61337	857.05493	632.08020	55.21764	844.87341	590.95679	59.63421	801.11700	650.02557	70.47932	790.52997	603.31757	72.12151	794.33411	507.72330	93.53385	800.14496	484.21893	210.26033	851.79352	387.72449	77.58792	840.15753	345.76108	72.56094	791.45123	399.09811	67.94566	789.07001	353.29688	66.35436	741.32568	92.66031	117.33466	704.60242	126.69466	198.61894	784.14142	54.41249	176.11046	580.03979	85.44630	180.06934	562.14813	112.04369	121.50854	620.08307	59.58530	71.34564
